<svg id="Layer_1" data-name="Layer 1" xmlns="http://www.w3.org/2000/svg" viewBox="0 0 199.4 94.23"><defs><style>.cls-1{fill:#fff;}</style></defs><title>Brainerd_Horizontal_White_CMYK</title><path class="cls-1" d="M32,70.41c-1-.3-2.3-.39-4-.75C28.16,70.74,31.83,71.13,32,70.41Z"/><path class="cls-1" d="M40.23,73.21c-.68,1.11-1.07.72-3.35,0a.6.6,0,0,0-.05,1h4C40.69,73.78,40.55,73.36,40.23,73.21Z"/><path class="cls-1" d="M31.66,73.31c-.65.21-2.14.59-3.38.85h2.54A7.5,7.5,0,0,0,31.66,73.31Z"/><path class="cls-1" d="M23.69,71.91a10.76,10.76,0,0,1-1.79-.2v2.45h4.85c-.29-.42,1-.84,1-1.32-.84.25-1.31.84-2.34.92-.15-.28-.3-.55-.67-.62-.3-1,1.1-.42,1-1.23-1,.21-1.17,1.18-2.68.93C23.14,72.43,23.61,72.35,23.69,71.91Z"/><path class="cls-1" d="M55.47,72.71a7,7,0,0,1-2.41.25,1,1,0,0,0-.23.39c.08.25.37.31.67.37s.6-.14.89-.22C54.91,73.21,55.43,72.93,55.47,72.71Z"/><path class="cls-1" d="M33.4,65.47a7,7,0,0,0,1-2.47C33.31,63.05,33.24,64.32,33.4,65.47Z"/><path class="cls-1" d="M30.39,65.77c-.17,1.09,1.81,2.19,2.12,1.55C31.9,66.72,31.45,66,30.39,65.77Z"/><path class="cls-1" d="M36,68.27a3.06,3.06,0,0,0,0-1.39S34.6,69,34.12,69.15C34.12,69.15,35.8,68.73,36,68.27Z"/><path class="cls-1" d="M42.69,29.82a.91.91,0,0,0-.37.15,1.91,1.91,0,0,0-.32.24s0,0,0,.05c-.12.38-.39.63-.2,1h0c.4.89,1.07,2.31,1.41,2.89h0l.14.21.35.32c.7.61,1.87,1.63,1.89,3,0,1.65-.7,2.34-2,3a6.52,6.52,0,0,1-1.59.59,2.52,2.52,0,0,0-.83.5l1.61.65c.39.17.57.25.87.36a2.57,2.57,0,0,0,1.16.33,3.1,3.1,0,0,1,1,0,11.52,11.52,0,0,0,1.66.06l.36,0a.85.85,0,0,1,.56.25,1.9,1.9,0,0,0,.89.37,4.74,4.74,0,0,1,.57.15.39.39,0,0,1,.14.17.3.3,0,0,0,.26.17,4.26,4.26,0,0,1,.5.06l.4.05,1.27.16,1.75.2A11.76,11.76,0,0,0,56,44.73c7.17-3.19,5.93-12.37,5.93-12.37a17.65,17.65,0,0,0-.19-2.6H42.69Z"/><path class="cls-1" d="M40.24,28.68a.36.36,0,0,0,.16-.14.87.87,0,0,1,1-.21l.82.4a.81.81,0,0,1,.34.32h19C59.56,18.76,47.86,19.5,47.86,19.5H24a2.05,2.05,0,0,0-2.05,2.05V27L40,28.89A.73.73,0,0,1,40.24,28.68Z"/><path class="cls-1" d="M45,37.69a3.37,3.37,0,0,0-1.29-2.2,17.07,17.07,0,0,1,.52,2.13,4.56,4.56,0,0,1,0,2A2.25,2.25,0,0,0,45,37.69Z"/><path class="cls-1" d="M40.9,31.84a1.6,1.6,0,0,0,0,.21c-.07.33-.13.67-.2,1a.38.38,0,0,1,0,.1c-.08.22-.14.45-.23.66a3.45,3.45,0,0,1-.39.67,9.72,9.72,0,0,0-.7,1.06l-.35.61c-.13.2-.26.4-.4.6s-.26.34-.4.51a3.44,3.44,0,0,0-.47.54,7.93,7.93,0,0,0-.43,1s0,.08,0,.11a2,2,0,0,0,.74.82,2.66,2.66,0,0,1,.53.47,3.22,3.22,0,0,0,1,.85c.26.15.53.29.79.42l.26.11a3.26,3.26,0,0,0,.53-1.92V31.5A.73.73,0,0,0,40.9,31.84Z"/><path class="cls-1" d="M23,70.07c.66-.41,1.45,0,2.21.4a1.24,1.24,0,0,1-.14-1,3.13,3.13,0,0,0,2-.24,1.21,1.21,0,0,1-1-1h1.34c-.19-.85-.36-1.73-1.68-1.54,1.41-1.16.24-.72,0-2.46,1.14.39,1.94,1.09,3,1.54.44-.11.52-.54,1-.62-.1-.72-1.16-.57-1-1.53.83,0,1,.48,1.67.61v-.92c-.08-.79-.57.42-1.34,0,1.17-1.63-.51-1.51-.67-3.38,1.33.37,1.62.78,2.68,0-.09,1.1.62,1.48.67,2.46,1.35-2-1.36-2.85-1.34-4.61A2.82,2.82,0,0,1,31.73,59c.93-.38.62-1.89.67-3.08,1,.07.57,1.53.67,2.46,1.19.17.82-1.09,2-.92-.42,1.66-2.14,2.13-2,4.3,1-.32,1.16-1.39,1.67-2.15.68,1.26,1.33-.15,2.68,0-.29.45-.5,1-1.34.92a5.49,5.49,0,0,0,1.34.92c-.25.7-1.88.12-2.68.31.36,1.12,1.42.75,2,1.23,0,0-1.25.76-1.35,1.34l1.35-.72c1.76.69.87-.65,2.62-.62-.34.41-.32,1.14-1,1.23-.06.67,1.18.14,1.67.31-.23.71-1.11.82-1.34,1.53.21.63,1.69.09,1.34,1.23-1,.3-1.61.62-2.62.93a2.89,2.89,0,0,0,2,.61,4.24,4.24,0,0,1-1.67,1.54c.32.76,1.28-.43,2.34,0-.62,1,1.44,1.24,2.81,1.66-.22-.33-.58-.41-.46-1.15.83,0,1,.48,1.67.61v-.92c-.08-.79-.57.42-1.34,0,1.17-1.62-.51-1.5-.67-3.38,1.33.38,1.62.79,2.68,0-.09,1.11.62,1.48.67,2.46,1.35-2-1.36-2.84-1.34-4.61a2.92,2.92,0,0,1,1.34,1.23c.93-.38.62-1.89.67-3.07,1,.06.57,1.52.67,2.45,1.19.17.82-1.08,2-.92-.42,1.67-2.14,2.13-2,4.3,1-.32,1.16-1.39,1.67-2.15.68,1.26,1.33-.15,2.68,0-.29.45-.5,1-1.34.93a6.11,6.11,0,0,0,1.34.92c-.25.69-1.87.12-2.68.3a14.75,14.75,0,0,1,2,1.23c-.74,0-2.56,1.88-2.34,0-.67.48-.25,1,0,2A6.75,6.75,0,0,0,49.72,71c.42,1.33,1,1,1.64.46,0-.19,0-.45-.08-.82.19-1,.93.12,1.68-.71-.05-.38.1-.8,1-.62-.1-.72-1.16-.57-1-1.53.84,0,1,.48,1.68.61v-.92c-.08-.79-.31,0-1.07-.39,1.16-1.63-.15-.62-.31-2.49,1.33.37,1,.29,2.05-.5-.09,1.11.72.68.77,1.66,1-1.53-1.46-2-1.44-3.81A2.92,2.92,0,0,1,56,63.19c.93-.38.62-1.89.67-3.08,1,.07.56,1.53.67,2.46,1.18.17.82-1.09,2-.92-.42,1.67-2.15,2.13-2,4.3,1-.32,1.16-1.39,1.67-2.15.67,1.26,1.32-.15,2.68,0-.29.45-.5,1-1.34.92a5.61,5.61,0,0,0,1.34.93c-.25.69-1.88.12-2.68.3.36,1.13,1.41.76,2,1.23,0,0-1.26.76-1.35,1.34L61,67.8a3.11,3.11,0,0,0,.47.15,17,17,0,0,0,1.74-8.09c0-8.65-4-12-7.53-13.31-.53.06-1.36.1-1.75.18a13.1,13.1,0,0,1-2.25.16c-.38,0-.77,0-1.16,0-.14,0-.27-.05-.4-.07l-.33-.05a.61.61,0,0,0-.59.29l-.09.12a.54.54,0,0,1-.49.18l-1.91-.06a1.17,1.17,0,0,1-.37-.08.41.41,0,0,0-.4.07s-.14,0-.19.09-.16.1-.18.16a2,2,0,0,1-.66.88,3.22,3.22,0,0,1-.89.57,3,3,0,0,1-.57.2,6,6,0,0,1-.83.23,2.69,2.69,0,0,1-1.38,0l-.6-.18a1.92,1.92,0,0,1-.89-.54c-.07-.08-.18,0-.26.05l-.16.19a.4.4,0,0,1-.53,0c-.12-.08-.24-.16-.35-.25-.26-.19-.52-.37-.76-.58s-.75-.65-1.11-1l-.83-.75-.68-.68c-.24-.25-.47-.5-.69-.76s-.48-.59-.7-.9-.37-.57-.55-.86c-.08-.14-.13-.29-.2-.44l-.15-.33-.24-.69,0-.1c-.07-.43-.13-.86-.2-1.29h0c0-.12,0-.24,0-.36a1,1,0,0,1,.23-.61.44.44,0,0,0,0-.56s-.11-.05-.13,0a.3.3,0,0,0-.12.15,1.37,1.37,0,0,1-.63.67,1.47,1.47,0,0,0-.7.58.93.93,0,0,0-.05.1l-.18.73a1.59,1.59,0,0,1-.44.94,1.2,1.2,0,0,1-.34.21.27.27,0,0,1-.32-.08s-.09,0-.13-.08a.16.16,0,0,1,0-.29c.13-.1.26-.22.39-.34a.5.5,0,0,0,.12-.39c0-.49-.05-1-.08-1.47a4,4,0,0,1,.1-1.29,1,1,0,0,1,.51-.6,1.46,1.46,0,0,1,.68-.17c.09,0,.14,0,.13-.15a3.41,3.41,0,0,0-.05-.55,1.94,1.94,0,0,1,0-.68,2.7,2.7,0,0,1,.23-.73,2,2,0,0,1,.68-.76,1.89,1.89,0,0,1,1-.33c.15,0,.3-.06.44-.07a2.57,2.57,0,0,1,1.34.28,1.62,1.62,0,0,1,.8.81l.3.72a.15.15,0,0,0,.26.06c.3-.24.6-.48.89-.74a4,4,0,0,0,.84-.91c.19-.29.78-1.19.92-1.5s.6-1.18.73-1.46a2.54,2.54,0,0,0,.28-1.47.35.35,0,0,0-.23-.29h0s0,0,0,0L21.9,27.66V70.72C22.8,70.68,23.74,70.45,23,70.07Z"/><path class="cls-1" d="M41.83,40.77a5.47,5.47,0,0,0,1.44-.53s.78-.55.43-2.52a11.09,11.09,0,0,0-1-3.26h0C42.4,34,42,33,41.64,32.34v7.31a3.81,3.81,0,0,1-.15,1.25A1.58,1.58,0,0,1,41.83,40.77Z"/><path class="cls-1" d="M57.34,69.57a7,7,0,0,0,1-2.47C57.26,67.14,57.18,68.42,57.34,69.57Z"/><path class="cls-1" d="M60.34,69.68c-.05-.2-.27-.35-.73-.44-.83,1-2.34,1.53-2.52,2.83a5.35,5.35,0,0,0,1.42-.59A11.12,11.12,0,0,0,60.34,69.68Z"/><path class="cls-1" d="M53.8,71c.48.75,2.41.16,2.27-.41A3.64,3.64,0,0,0,53.8,71Z"/><path class="cls-1" d="M70.8,55.37c0,1,0,2,0,3,0,.39.13.55.53.54,2.35,0,4.71.09,7,0,2.64-.16,4.87-1.5,5.26-4.79a27.41,27.41,0,0,0,.11-4.53,9.26,9.26,0,0,0-.58-2.63,4.45,4.45,0,0,0-2.29-2.31c1.56-1.47,1.93-2,2.15-2.93a12.47,12.47,0,0,0,0-5.7,4.1,4.1,0,0,0-2.81-3.29,12.72,12.72,0,0,0-3.06-.51c-1.82-.08-3.65,0-5.48,0-.71,0-.91.17-.91.9C70.82,40.47,70.8,47.92,70.8,55.37Zm4.25-19.83h1.31a2.4,2.4,0,0,1,2,.76A4.21,4.21,0,0,1,79,38.93a4,4,0,0,1-.69,2.65,2.79,2.79,0,0,1-2.2.78h-1Zm0,11.32h1.56a3.31,3.31,0,0,1,1.11.18,2,2,0,0,1,.86.64,3.5,3.5,0,0,1,.58,1.21,7,7,0,0,1,.21,1.87,4.48,4.48,0,0,1-.8,3.1,2.79,2.79,0,0,1-2.11.84H75.05Z"/><path class="cls-1" d="M177.44,37.89a7.58,7.58,0,0,0-.71-2.86,4.9,4.9,0,0,0-4.65-2.84c-2.2-.1-4.41,0-6.61-.06-.63,0-.8.17-.8.8,0,4.2,0,8.39,0,12.59s0,8.15,0,12.37c0,.4,0,.75.56.74,2.32,0,4.65.06,7-.06,2-.1,3.71-.64,4.55-2.59a7.89,7.89,0,0,0,.69-2.8Q177.54,45.53,177.44,37.89Zm-3.72,14.39a2.46,2.46,0,0,1-2.47,2.45h-2.61V35.88s5.06-.92,5.06,2.34C173.7,41.14,173.75,48.67,173.72,52.28Z"/><path class="cls-1" d="M116.26,58.91a18.81,18.81,0,0,1,2.49,0c.74.06.92-.23.91-.93,0-5.18,0-10.35,0-15.52,0-3.16,0-6.31,0-9.47,0-.63-.16-.91-.84-.86a21.86,21.86,0,0,1-2.56,0c-.63,0-.81.16-.8.79,0,4.2,0,8.4,0,12.6s0,8.4,0,12.6C115.45,58.75,115.63,59,116.26,58.91Z"/><path class="cls-1" d="M150.14,52.12c0,1.88,0,4,0,5.91,0,.56.13.83.75.79.88,0,1.76,0,2.63,0,.56,0,.79-.2.75-.75,0-.19,0-.66,0-.85,0-2.9,0-5.79,0-8.68,0-.26.23-.73.38-.75,2-.14,3.63.07,3.7,2.87.06,1.92,0,3.84,0,5.76,0,.29,0,.57,0,.86.1,1.06.31,1.53,1.36,1.53h2.5c.19,0,.39-.05.6-.07a18.46,18.46,0,0,1-.25-2c0-1.87,0-3.74-.11-5.61-.08-2.17-.23-4.32-2.62-5.57a4.77,4.77,0,0,0,2.23-2.74,15.94,15.94,0,0,0,.16-6.84,4.14,4.14,0,0,0-3-3.5,11.48,11.48,0,0,0-2.73-.41c-1.85-.06-3.7,0-5.55,0-.65,0-.84.17-.84.83C150.15,39.32,150.14,45.72,150.14,52.12Zm4-16.58h2c2,0,2.86,1.24,2.86,3.72a4.67,4.67,0,0,1-.75,3.1,3,3,0,0,1-2.34.92H154.1Z"/><path class="cls-1" d="M114,58.37l-1-6.68-.9-5.68c-.44-2.76-.89-5.51-1.34-8.27-.28-1.73-.55-3.46-.85-5.19a.63.63,0,0,0-.45-.37c-1.74,0-3.47,0-5.2,0a.77.77,0,0,0-.57.45c-.16.71-.23,1.45-.34,2.17l-.93,5.89q-.66,4.14-1.33,8.28l-1,6.52c-.17,1.1-.32,2.19-.5,3.43,1.23,0,2.32,0,3.4,0,.16,0,.4-.29.43-.48.22-1.21.42-2.43.57-3.65.06-.5.25-.7.76-.69,1.26,0,2.52,0,3.77,0,.63,0,.82.26.87.83.08.9.21,1.79.36,2.67.23,1.35.25,1.35,1.6,1.35h2.79C114,58.64,114,58.5,114,58.37Zm-9.08-9,1.73-11.7h0l1.73,11.7Z"/><path class="cls-1" d="M123.48,62.44H121.4a.4.4,0,0,0-.44.4c-.24,2.29-.7,4.55-.79,6.86,0,.15.06.33-.12.45a.92.92,0,0,1-.3-.52c-.69-2.26-1.66-4.42-2.47-6.63a.73.73,0,0,0-.81-.57c-.69,0-1.38,0-2.08,0s-.72.25-.79.76c-.27,1.87-.59,3.74-.88,5.61-.21,1.37-.41,2.74-.63,4.1,0,.27,0,.45.32.45.73,0,1.47,0,2.2,0A.37.37,0,0,0,115,73c.17-1.27.33-2.54.51-3.81s.28-2.28.45-3.45c.1.24.22.47.3.71.71,2.21,1.61,4.35,2.46,6.51a.59.59,0,0,0,.64.43c.77,0,1.55,0,2.33,0a.53.53,0,0,0,.61-.52c.09-.6.2-1.21.3-1.81q.48-2.92,1-5.85c.12-.74.22-1.49.33-2.23C123.93,62.64,123.85,62.43,123.48,62.44Z"/><path class="cls-1" d="M167.92,62.48c-.61,0-1.22,0-1.84,0a.54.54,0,0,0-.65.54c-.21,1.32-.42,2.65-.66,4a9.81,9.81,0,0,1-.72,3,1.94,1.94,0,0,1-2.35.94c-.63-.2-.9-.83-.75-1.86.25-1.65.51-3.3.79-4.94s.3-1.66-1.24-1.66c-.25,0-.49,0-.74,0-.63-.07-.83.21-.9.83-.14,1.23-.39,2.45-.59,3.67a13.52,13.52,0,0,0-.35,3.58,3,3,0,0,0,1.23,2.29,5.55,5.55,0,0,0,3.79.8,4.14,4.14,0,0,0,4.24-3.72c.48-2.29.8-4.61,1.19-6.92C168.44,62.64,168.3,62.48,167.92,62.48Z"/><path class="cls-1" d="M110.43,62.44h-.18c-.27,0-.53,0-.8,0-.51,0-.69.15-.76.68-.34,2.37-.75,4.74-1.12,7.11-.14.88-.26,1.77-.4,2.65-.06.36.1.49.43.49h2a.5.5,0,0,0,.56-.52,11.81,11.81,0,0,1,.26-1.56c.4-2.47.84-4.93,1.17-7.41C111.78,62.17,111.94,62.47,110.43,62.44Z"/><path class="cls-1" d="M105.91,70.85H104c-.79,0-.82,0-.74-.84,0-.1,0-.21,0-.31q.56-3.33,1.12-6.68c.08-.44-.07-.6-.5-.59-.59,0-1.18,0-1.77,0a.57.57,0,0,0-.7.56c-.21,1.47-.45,2.94-.69,4.4q-.44,2.69-.89,5.36c-.08.46.1.63.56.61.81,0,1.63,0,2.45,0s1.71,0,2.57,0c.33,0,.49-.09.58-.45.13-.52.12-1,.25-1.57C106.4,71,106.25,70.85,105.91,70.85Z"/><path class="cls-1" d="M131.42,62.43c-1.66,0-3.31,0-5,0-.54,0-.77.17-.84.7-.21,1.47-.44,2.94-.68,4.41-.28,1.75-.59,3.49-.88,5.24-.07.41.07.6.51.6.86,0,1.72,0,2.58,0h2.63c.25,0,.54,0,.55-.34a13.75,13.75,0,0,1,.27-1.56c.08-.48-.11-.66-.61-.64-.69,0-1.38,0-2.08,0-.2,0-.45,0-.48-.25a2.42,2.42,0,0,1,.27-1.36c.17-.31.57-.14.86-.15s.73,0,1.1,0c1.41,0,1.33.22,1.5-1.25a5.08,5.08,0,0,1,.15-.65c.08-.37-.06-.53-.45-.51-.61,0-1.23,0-1.84,0-1,0-1,0-.85-1a.13.13,0,0,0,0-.06c0-.5.26-.72.79-.7.71,0,1.43,0,2.14,0a.53.53,0,0,0,.63-.5,13,13,0,0,1,.22-1.39C132.1,62.52,131.89,62.43,131.42,62.43Z"/><path class="cls-1" d="M147.69,58.92c.42,0,.6-.13.58-.57,0-.81,0-1.62,0-2.42,0-.61-.16-.84-.79-.82-1.88,0-3.75,0-5.62,0-.57,0-.82-.16-.82-.77,0-2.16,0-4.31,0-6.47,0-.49.17-.67.67-.66,1.49,0,3,0,4.48,0,.49,0,.67-.15.65-.65,0-.81,0-1.62,0-2.42,0-.56-.16-.76-.72-.74-1.4,0-2.8,0-4.2,0-.64,0-.89-.18-.88-.85,0-1.94,0-3.89,0-5.83,0-.66.24-.86.88-.85,1.87,0,3.74,0,5.62,0,.56,0,.76-.18.73-.74a19.1,19.1,0,0,1,0-2.27c0-.63-.17-.81-.8-.81-3.27,0-6.54,0-9.81,0-.63,0-.81.18-.8.8,0,4.2,0,8.4,0,12.6V58.19c0,.4,0,.73.56.73C140.86,58.9,144.27,58.91,147.69,58.92Z"/><path class="cls-1" d="M145.41,63.65a4,4,0,0,1,.09-.48c.14-.69.12-.73-.61-.73h-6.24c-.31,0-.57,0-.63.41-.07.59-.15,1.17-.26,1.75-.06.35.11.44.4.43h1.47c.26,0,.39.07.33.35-.2,1.12-.4,2.24-.58,3.37-.22,1.38-.41,2.77-.63,4.16-.05.31,0,.47.37.47h2.08a.41.41,0,0,0,.47-.38c.09-.58.17-1.17.27-1.75.28-1.81.59-3.61.85-5.42.09-.65.38-.81,1-.79C145.22,65.07,145.22,65,145.41,63.65Z"/><path class="cls-1" d="M134.39,32.13c-.81,0-1.62,0-2.42,0-.65,0-.79.21-.79.82,0,4.46,0,9.2,0,13.66v.88H131c-.6-2.22-1.19-4.45-1.79-6.67-.7-2.61-1.39-5.5-2.08-8.11a.71.71,0,0,0-.82-.58c-1.21,0-2.42,0-3.63,0-.67,0-.89.16-.89.86,0,3.61,0,7.5,0,11.1,0,4.7,0,9.4,0,14.1,0,.54.13.77.71.73a15.28,15.28,0,0,1,2.14,0c.68.06.88-.18.87-.86,0-5.56,0-11.11,0-16.66v-.81l.23,0q1.44,5.41,2.89,10.82c.6,2.24,1.21,4.48,1.78,6.73a.89.89,0,0,0,1.08.81c.82-.07,1.66,0,2.49,0s.92,0,.92-.93c0-8.21,0-16.7,0-24.91a3.09,3.09,0,0,1,0-.43C134.92,32.26,134.75,32.13,134.39,32.13Z"/><path class="cls-1" d="M97.78,51.55c-.08-2.17-.23-4.32-2.62-5.57a4.81,4.81,0,0,0,2.23-2.74,16.1,16.1,0,0,0,.16-6.84,4.52,4.52,0,0,0-3-3.79,11.32,11.32,0,0,0-2.72-.4c-1.85-.06-3.7,0-5.55,0-.65,0-.85.16-.84.83,0,6.4,0,13.09,0,19.5,0,1.87,0,3.74,0,5.62,0,.56.14.82.76.79a25.63,25.63,0,0,1,2.63,0c.56,0,.79-.21.75-.75,0-.19,0-.38,0-.57,0-2.9,0-5.79,0-8.68,0-.26.23-.73.38-.74,2-.15,3.63.06,3.7,2.86.05,1.92,0,3.84,0,5.76,0,.29,0,.57,0,.86.1,1.06.31,1.25,1.36,1.25h2.49c.2,0,.4,0,.6-.06a13.85,13.85,0,0,1-.24-1.68C97.83,55.29,97.85,53.42,97.78,51.55Zm-4.39-9.19a3,3,0,0,1-2.35.92H89.28V35.54h2c2,0,2.86,1.24,2.86,3.72A4.73,4.73,0,0,1,93.39,42.36Z"/><path class="cls-1" d="M156.71,66.13a4.68,4.68,0,0,0-4.22-3.6c-2.45-.26-4.63.2-6.26,2.23a6.45,6.45,0,0,0-.51,6.64c1.61,2.58,4.08,3,6.87,2.31a5.73,5.73,0,0,0,4.28-5.88A7,7,0,0,0,156.71,66.13Zm-5,4.93a3.18,3.18,0,0,1-1,.13,2.33,2.33,0,0,1-2.57-2.28,3.26,3.26,0,0,1,3.23-3.85,2.18,2.18,0,0,1,2.35,2A3.52,3.52,0,0,1,151.7,71.06Z"/><path class="cls-1" d="M80.67,62.43H73.2c-.46,0-.66.15-.67.63a6.08,6.08,0,0,1-.18,1.27c-.09.47,0,.68.54.66,1,0,1.92,0,2.88,0,.13,0,.3,0,.38.11s-.07.26-.14.37l-.25.35-5,6.93c-.12.15-.34.32-.23.52s.37.12.57.12h8.14c.26,0,.57.06.63-.32.09-.54.17-1.09.26-1.63s-.09-.57-.52-.57c-1.21,0-2.41,0-3.61,0-.18,0-.41.13-.51-.06s.13-.36.24-.51L81,63c.09-.13.24-.26.15-.43S80.83,62.43,80.67,62.43Z"/><path class="cls-1" d="M93.64,62.79a14.83,14.83,0,0,0-3.81-.35c-.39,0-.78,0-1.16,0-.56,0-.72.24-.8.75-.27,1.92-.6,3.82-.9,5.73-.2,1.31-.39,2.62-.6,3.93-.06.37.06.53.44.52.63,0,1.27,0,1.9,0,.42,0,.55-.19.6-.59.11-.87.31-1.72.41-2.59.06-.49.29-.6.73-.58a12.05,12.05,0,0,0,1.59,0c1.32-.1,2.55-.38,3.25-1.7a4.73,4.73,0,0,0,.44-2.31A2.74,2.74,0,0,0,93.64,62.79Zm-2.22,4.44h-.36c-.88,0-.89,0-.73-.89,0-.24.12-.47.16-.71s0-.75.54-.77c.76,0,1.33.21,1.51.67A1.19,1.19,0,0,1,91.42,67.23Z"/><path class="cls-1" d="M84.7,62.44h-.19c-.26,0-.53,0-.79,0-.51,0-.69.15-.76.68-.35,2.37-.75,4.74-1.13,7.11-.14.88-.25,1.77-.39,2.65-.06.36.09.49.42.49h2a.49.49,0,0,0,.55-.52c0-.53.18-1,.26-1.56.4-2.47.84-4.93,1.18-7.41C86,62.17,86.21,62.47,84.7,62.44Z"/><path class="cls-1" d="M175.3,62.49a14.79,14.79,0,0,0-3.58-.26h-1.47c-.35,0-.51.14-.55.5-.07.69-.19,1.37-.3,2-.42,2.62-.84,5.23-1.28,7.84-.07.43.09.55.48.54s1.06,0,1.59,0c.78,0,.85-.08.95-.85.11-1,.25-1.9.38-2.85,0-.16,0-.39.18-.42s.19.21.26.35c.51,1.08,1,2.17,1.51,3.27a.76.76,0,0,0,.8.51c.74,0,1.47,0,2.21,0,.49,0,.57-.13.31-.56-.64-1-1.25-2.1-1.88-3.15-.22-.36-.22-.61.24-.72a2.88,2.88,0,0,0,2.29-2.55A3,3,0,0,0,175.3,62.49Zm-1.64,4.28a2.75,2.75,0,0,1-.9.11c-.53,0-.89-.06-.66-.64,0-.19,0-.31,0-.43.13-1,.59-1.32,1.57-1a.89.89,0,0,1,.65.87A1,1,0,0,1,173.66,66.77Z"/></svg>