<svg id="Layer_1" data-name="Layer 1" xmlns="http://www.w3.org/2000/svg" viewBox="0 0 95.42 108.49"><defs><style>.cls-1{fill:#fff;}</style></defs><title>Brainerd_Symbol_White_CMYK</title><path class="cls-1" d="M34.68,83.48c-1.2-.38-2.85-.49-4.95-.93C29.87,83.89,34.41,84.37,34.68,83.48Z"/><path class="cls-1" d="M44.83,87c-.84,1.37-1.32.89-4.15,0a.73.73,0,0,0-.06,1.17h5C45.4,87.65,45.23,87.13,44.83,87Z"/><path class="cls-1" d="M34.21,87.07c-.81.25-2.65.73-4.19,1.05h3.15A9.39,9.39,0,0,0,34.21,87.07Z"/><path class="cls-1" d="M24.33,85.34a13.52,13.52,0,0,1-2.22-.26v3h6c-.35-.52,1.21-1,1.19-1.64-1,.32-1.62,1-2.9,1.14-.18-.34-.36-.68-.83-.76-.37-1.22,1.37-.52,1.24-1.52-1.24.25-1.44,1.46-3.32,1.14C23.65,86,24.24,85.88,24.33,85.34Z"/><path class="cls-1" d="M63.72,86.32a8.5,8.5,0,0,1-3,.31,1.31,1.31,0,0,0-.28.49c.11.31.47.39.83.46s.74-.18,1.1-.28C63,87,63.67,86.59,63.72,86.32Z"/><path class="cls-1" d="M36.36,77.36a8.87,8.87,0,0,0,1.25-3.07C36.26,74.35,36.16,75.93,36.36,77.36Z"/><path class="cls-1" d="M32.64,77.72c-.21,1.36,2.24,2.72,2.63,1.93C34.51,78.9,33.94,78,32.64,77.72Z"/><path class="cls-1" d="M39.59,80.82a3.91,3.91,0,0,0,0-1.72s-1.74,2.63-2.33,2.81C37.26,81.91,39.34,81.4,39.59,80.82Z"/><path class="cls-1" d="M47.88,33.16a1.54,1.54,0,0,0-.46.19,3.9,3.9,0,0,0-.4.31s-.05,0-.05.05c-.14.47-.48.79-.25,1.28h0c.49,1.11,1.32,2.87,1.75,3.58h0v0a1.65,1.65,0,0,0,.18.25,5.17,5.17,0,0,0,.44.4c.86.76,2.31,2,2.33,3.68,0,2-.87,2.89-2.52,3.76a7.63,7.63,0,0,1-2,.73,3,3,0,0,0-1,.62l2,.8a11.06,11.06,0,0,0,1.07.45,3.14,3.14,0,0,0,1.44.41,4,4,0,0,1,1.19,0,14.2,14.2,0,0,0,2.06.08l.45,0a1.07,1.07,0,0,1,.68.31,2.58,2.58,0,0,0,1.12.47,4.5,4.5,0,0,1,.7.18.4.4,0,0,1,.17.21.33.33,0,0,0,.33.2c.2,0,.4.06.61.09l.5.06,1.57.19c.73.08,1.45.18,2.17.25a14.26,14.26,0,0,0,2.41-.06c8.88-3.95,7.34-15.33,7.34-15.33a21.48,21.48,0,0,0-.23-3.22H47.88Z"/><path class="cls-1" d="M44.84,31.76a.47.47,0,0,0,.2-.17,1.06,1.06,0,0,1,1.28-.27c.34.18.69.32,1,.5a1,1,0,0,1,.43.39H71.34C68.78,19.46,54.28,20.38,54.28,20.38H24.66a2.55,2.55,0,0,0-2.55,2.55v6.68L44.5,32A.91.91,0,0,1,44.84,31.76Z"/><path class="cls-1" d="M50.75,42.92a4.15,4.15,0,0,0-1.6-2.72,18,18,0,0,1,.64,2.64,5.66,5.66,0,0,1,0,2.5A2.75,2.75,0,0,0,50.75,42.92Z"/><path class="cls-1" d="M45.66,35.67c0,.09,0,.17-.07.26l-.24,1.26a.56.56,0,0,1,0,.12,7.81,7.81,0,0,1-.29.81,3.85,3.85,0,0,1-.47.84,11.44,11.44,0,0,0-.87,1.31l-.44.76c-.16.25-.32.5-.49.74a7.57,7.57,0,0,1-.49.63,4.65,4.65,0,0,0-.6.67,12.67,12.67,0,0,0-.53,1.25.21.21,0,0,0,0,.13,2.38,2.38,0,0,0,.92,1,3,3,0,0,1,.65.58A3.76,3.76,0,0,0,44,47.1l1,.53.32.12a4,4,0,0,0,.65-2.37V35.25A1,1,0,0,0,45.66,35.67Z"/><path class="cls-1" d="M23.5,83.05c.82-.51,1.8-.06,2.73.49a1.53,1.53,0,0,1-.17-1.24,3.87,3.87,0,0,0,2.45-.3,1.51,1.51,0,0,1-1.27-1.23H28.9c-.24-1-.44-2.14-2.08-1.91,1.75-1.43.29-.88,0-3,1.41.48,2.41,1.35,3.74,1.9.54-.13.65-.67,1.24-.76-.12-.9-1.44-.71-1.24-1.91,1,0,1.29.6,2.07.77V74.67c-.1-1-.71.53-1.66,0,1.45-2-.63-1.86-.83-4.19,1.65.47,2,1,3.32,0-.11,1.38.77,1.84.83,3C36,71.1,32.61,70,32.63,67.82a3.52,3.52,0,0,1,1.66,1.52c1.16-.46.78-2.34.83-3.81,1.3.09.71,1.9.83,3,1.47.21,1-1.35,2.5-1.14-.52,2.06-2.66,2.64-2.5,5.33,1.23-.4,1.45-1.72,2.08-2.67.83,1.57,1.64-.19,3.32,0-.36.56-.62,1.21-1.66,1.15a7.28,7.28,0,0,0,1.66,1.14c-.31.86-2.33.15-3.32.38.45,1.39,1.75.93,2.49,1.52,0,0-1.56.94-1.68,1.66l1.68-.9c2.17.87,1.07-.8,3.24-.76-.41.51-.39,1.42-1.24,1.53-.07.82,1.47.17,2.07.38-.28.88-1.38,1-1.66,1.9.26.78,2.1.11,1.66,1.53-1.26.36-2,.76-3.24,1.14a3.62,3.62,0,0,0,2.49.76,5.23,5.23,0,0,1-2.07,1.9c.4.95,1.59-.52,2.9,0-.77,1.23,1.78,1.55,3.48,2.07-.27-.41-.72-.51-.57-1.43,1-.06,1.28.6,2.07.76V83.69c-.1-1-.71.52-1.66,0,1.45-2-.63-1.87-.83-4.19,1.64.46,2,1,3.32,0-.11,1.37.77,1.83.83,3C53,80.11,49.63,79,49.65,76.83a3.58,3.58,0,0,1,1.66,1.53c1.16-.47.77-2.34.83-3.81,1.29.08.7,1.89.83,3,1.47.21,1-1.35,2.49-1.14-.52,2.06-2.66,2.64-2.49,5.33,1.23-.4,1.44-1.72,2.08-2.66.83,1.56,1.63-.2,3.32,0-.36.55-.62,1.2-1.66,1.14a6.87,6.87,0,0,0,1.66,1.14c-.31.86-2.33.15-3.32.38a18.21,18.21,0,0,1,2.49,1.53c-.93,0-3.18,2.32-2.91,0-.83.59-.31,1.26.07,2.48a8.46,8.46,0,0,0,1.89-1.56c.52,1.65,1.19,1.28,2,.57,0-.23-.06-.56-.1-1,.24-1.23,1.15.15,2.09-.88-.06-.47.12-1,1.25-.76-.13-.9-1.45-.71-1.25-1.9,1-.06,1.29.6,2.08.76V79.86c-.1-1-.39,0-1.33-.49,1.44-2-.18-.76-.38-3.09,1.64.47,1.21.36,2.54-.61-.12,1.37.89.84.95,2,1.26-1.9-1.81-2.53-1.78-4.72a3.61,3.61,0,0,1,1.66,1.52c1.15-.46.77-2.34.83-3.8,1.29.08.7,1.89.83,3,1.47.21,1-1.35,2.49-1.14C68,74.68,65.84,75.26,66,78c1.22-.4,1.44-1.72,2.07-2.66.83,1.56,1.64-.2,3.32,0-.36.55-.62,1.2-1.66,1.14a7.28,7.28,0,0,0,1.66,1.14c-.31.86-2.33.15-3.32.38.45,1.39,1.75.93,2.49,1.53,0,0-1.56.94-1.68,1.65l1.68-.89a5.23,5.23,0,0,0,.58.18,21.09,21.09,0,0,0,2.15-10C73.3,59.68,68.37,55.5,64,53.9c-.67.08-1.68.13-2.18.23a14.39,14.39,0,0,1-2.78.19c-.48,0-1,0-1.44-.06a4.37,4.37,0,0,1-.5-.09l-.4-.06a.76.76,0,0,0-.73.36l-.12.15a.63.63,0,0,1-.61.22l-2.36-.06a2.36,2.36,0,0,1-.46-.1.53.53,0,0,0-.5.07c-.06.06-.16.07-.24.12s-.19.12-.22.21a2.48,2.48,0,0,1-.81,1.08,4,4,0,0,1-1.11.71,4.16,4.16,0,0,1-.7.25,9.22,9.22,0,0,1-1,.28,3.31,3.31,0,0,1-1.71,0l-.74-.22a2.45,2.45,0,0,1-1.11-.67c-.08-.09-.22-.07-.32.06l-.2.24a.49.49,0,0,1-.65.06c-.15-.1-.3-.2-.44-.31-.32-.24-.64-.46-.94-.71-.47-.4-.92-.81-1.38-1.22s-.69-.61-1-.92-.57-.56-.85-.85-.58-.61-.85-.93-.59-.74-.87-1.13-.46-.7-.68-1.06a5.29,5.29,0,0,1-.25-.54c-.06-.14-.13-.27-.18-.42l-.3-.84s0-.08,0-.12c-.08-.54-.17-1.08-.25-1.61h0c0-.15,0-.3,0-.44a1.16,1.16,0,0,1,.29-.76.56.56,0,0,0,0-.7.17.17,0,0,0-.16,0,.55.55,0,0,0-.15.19,1.62,1.62,0,0,1-.78.83,1.83,1.83,0,0,0-.86.72.75.75,0,0,0-.07.12c-.08.3-.15.61-.22.91a1.93,1.93,0,0,1-.54,1.16,1.45,1.45,0,0,1-.43.26.31.31,0,0,1-.4-.1.48.48,0,0,0-.16-.09.2.2,0,0,1,0-.36,6.27,6.27,0,0,0,.48-.42.66.66,0,0,0,.16-.49c0-.6-.07-1.21-.11-1.82a5.05,5.05,0,0,1,.13-1.6,1.21,1.21,0,0,1,.63-.74,1.75,1.75,0,0,1,.84-.22.15.15,0,0,0,.17-.18c0-.22,0-.45-.06-.67a2,2,0,0,1,0-.85,3.14,3.14,0,0,1,.28-.9,2.47,2.47,0,0,1,2.08-1.36c.19,0,.37-.08.55-.09a3.19,3.19,0,0,1,1.66.35,2.13,2.13,0,0,1,1,1l.37.9a.19.19,0,0,0,.32.08c.37-.31.75-.6,1.11-.92a5.59,5.59,0,0,0,1-1.13c.23-.36,1-1.48,1.14-1.87s.74-1.46.9-1.8a3.13,3.13,0,0,0,.34-1.82.42.42,0,0,0-.27-.36l-.06,0v0L22.11,30.5V83.86C23.22,83.82,24.39,83.53,23.5,83.05Z"/><path class="cls-1" d="M46.81,46.75a7.68,7.68,0,0,0,1.78-.66s1-.69.54-3.13a13.37,13.37,0,0,0-1.23-4h0c-.38-.63-.93-1.77-1.32-2.62v9.05a5.32,5.32,0,0,1-.19,1.55A1.77,1.77,0,0,1,46.81,46.75Z"/><path class="cls-1" d="M66,82.43a8.81,8.81,0,0,0,1.25-3.06C65.94,79.43,65.84,81,66,82.43Z"/><path class="cls-1" d="M69.75,82.57c-.06-.24-.33-.44-.9-.54-1,1.26-2.9,1.89-3.12,3.51a7.15,7.15,0,0,0,1.75-.74A12.94,12.94,0,0,0,69.75,82.57Z"/><path class="cls-1" d="M61.64,84.23c.6.93,3,.2,2.82-.51A4.56,4.56,0,0,0,61.64,84.23Z"/></svg>